<svg xmlns="http://www.w3.org/2000/svg" width="121" height="32" fill="none"><g fill="#FAD9C4" clip-path="url(#a)"><path d="M13.33 0H0v32zM22.71 0h13.314v32zM18.02 11.794 26.507 32h-5.567l-2.536-6.433h-6.21zM57.772 20.35l1.572 4.524c.052.113.13.166.27.166h3.022c.165 0 .19-.079.165-.244L56.556 7.388c-.026-.14-.052-.166-.19-.166h-3.752c-.104 0-.165.079-.165.192-.052.915-.13 1.194-.243 1.464L46.639 24.77c-.026.192.034.27.19.27h2.702c.165 0 .243-.052.304-.217l1.485-4.472zm-5.593-2.955c.817-2.476 1.894-5.649 2.328-7.462h.026c.538 1.9 1.806 5.666 2.38 7.462zM70.828 25.31c1.624 0 3.352-.296 5.107-1.055.138-.052.165-.113.165-.244a18 18 0 0 1-.113-1.735V5.888c0-.104 0-.156-.13-.156h-2.945c-.113 0-.165.052-.165.191v5.553a10 10 0 0 0-1.163-.078c-4.75 0-7.669 3.146-7.669 7.078 0 4.559 2.996 6.834 6.913 6.834m1.92-3.034c-.487.157-1.026.218-1.573.218-2.153 0-3.916-1.22-3.916-4.184 0-2.624 1.815-4.175 4.22-4.175.487 0 .912.052 1.268.191zM85.492 11.398c-4.056 0-6.566 3.12-6.566 6.973 0 3.443 1.998 6.939 6.505 6.939 3.813 0 6.487-2.816 6.487-7.026 0-3.713-2.266-6.886-6.426-6.886m-.165 2.737c2.293 0 3.265 1.978 3.265 4.236 0 2.79-1.433 4.176-3.1 4.176-2.058 0-3.274-1.735-3.274-4.237 0-2.571 1.294-4.175 3.109-4.175M94.963 5.732c-.113 0-.191.052-.191.191v18.55c0 .079.078.218.19.244 1.295.401 2.65.593 4.048.593 4.003 0 7.894-2.493 7.894-7.514 0-3.635-2.484-6.398-6.375-6.398-.894 0-1.728.14-2.457.383l-.035-5.832c0-.191-.052-.217-.243-.217zm8.615 12.395c0 3.008-2.05 4.42-4.264 4.42-.46 0-.869-.027-1.242-.14v-7.915c.425-.166.938-.305 1.884-.305 2.137 0 3.622 1.36 3.622 3.94M117.891 19.103c1.32 0 2.406-.026 2.779-.113.139-.026.191-.078.217-.192.078-.296.113-.915.113-1.673 0-2.58-1.546-5.727-5.541-5.727-4.081 0-6.348 3.338-6.348 7.104 0 3.339 1.754 6.808 6.67 6.808 1.841 0 3.031-.296 4.055-.785.105-.052.157-.14.157-.296v-2.258c0-.13-.078-.157-.157-.104-1.024.435-2.136.653-3.352.653-2.753 0-4.004-1.525-4.082-3.417zm-5.489-2.336c.217-1.325 1.051-2.763 2.918-2.763 2.059 0 2.597 1.735 2.597 2.52v.217c-.113.026-.46.026-1.485.026z"/></g><defs><clipPath id="a"><path fill="#fff" d="M0 0h121v32H0z"/></clipPath></defs></svg>