<svg xmlns="http://www.w3.org/2000/svg" width="64" height="64" fill="none"><path fill="#F2F2F6" d="M52 40H40v-4h12zm8 16H48v-4h12zm-4-8H44v-4h12z"/><path fill="#424674" d="M34.006 40a9.8 9.8 0 0 0-4.808-8.346L44 6l-3.46-2-15.154 26.252A11.4 11.4 0 0 0 14.9 33.258C7.412 40.48 7.992 57.364 8.02 58.08a2 2 0 0 0 2 1.92h29.982a2 2 0 0 0 1.2-3.6c-7.08-5.312-7.196-16.292-7.196-16.4M23.86 33.994A6.22 6.22 0 0 1 30.008 40c0 .076.004.416.034.938l-11.8-5.248a7.6 7.6 0 0 1 5.618-1.696M30.9 56a10.4 10.4 0 0 1-2.9-6h-4c.143 2.129.808 4.19 1.936 6H21.49A33.2 33.2 0 0 1 20 48h-4a34.6 34.6 0 0 0 1.33 8H12c.062-3.672.58-11.784 3.606-17.106l15.066 6.7A26 26 0 0 0 35.192 56z"/></svg>