<svg xmlns="http://www.w3.org/2000/svg" width="1600" height="271" fill="none"><path fill="url(#a)" d="M26.692 270.752v-41.418H121.8v-42.338h-1.534q-6.443 9.51-19.329 15.953-12.885 6.443-30.066 6.443-19.635 0-35.896-9.817-15.953-10.125-25.464-28.226Q0 152.941 0 129.01q0-23.624 9.818-42.031Q19.943 68.57 36.509 58.446q16.875-10.125 36.203-10.124 17.487 0 30.373 7.363 13.192 7.056 19.942 18.101h1.534V52.003h45.1v218.749zm59.212-102.778q10.738 0 18.715-4.602 8.284-4.602 12.579-13.192 4.602-8.897 4.602-21.17 0-12.271-4.602-21.169-4.295-8.896-12.579-13.5-7.977-4.6-18.715-4.601-11.045 0-19.328 4.602-8.284 4.602-12.886 13.499t-4.602 21.169 4.602 21.17q4.602 8.59 12.886 13.192t19.328 4.602"/><path fill="url(#b)" d="M283.661 214.608q-24.237 0-44.179-10.738-19.635-11.045-30.987-30.067t-11.351-42.338q0-23.624 11.351-42.646 11.352-19.02 30.987-29.76 19.942-10.737 44.179-10.737 23.931 0 43.259 10.43 19.635 10.432 30.987 30.067 11.658 19.636 11.659 46.021v10.738H222.915v-30.681h110.448l-11.658 7.977q-.92-10.737-6.136-18.408-4.909-7.977-13.193-11.965-7.977-4.296-18.408-4.295-11.965 0-20.862 5.215-8.59 4.91-13.193 14.727t-4.602 23.317q0 13.498 4.602 23.317 4.602 9.817 13.193 15.033 8.896 4.909 20.862 4.909t19.942-3.989 13.193-11.965h49.088q-4.603 16.567-16.567 29.453-11.66 12.579-28.84 19.635-17.18 6.75-37.123 6.75"/><path fill="url(#c)" d="M410.536 210.926V13.04h47.86v156.468h46.021v41.418zM378.321 92.808v-38.35h118.426v38.35z"/><path fill="url(#d)" d="M584.746 214.608q-19.329 0-36.203-10.125-16.567-10.124-26.691-29.146-9.819-19.022-9.818-43.872 0-24.852 9.818-43.873 10.123-19.02 26.691-29.146 16.874-10.125 36.203-10.124 17.487 0 30.68 7.363 13.499 7.363 20.249 18.101h1.534V52.003h45.099v158.923h-45.099v-21.783h-1.534q-6.75 11.046-19.942 18.408-13.193 7.057-30.987 7.057m13.499-41.418q10.738 0 19.022-4.909 8.283-5.216 12.578-14.42 4.602-9.51 4.602-22.396t-4.602-22.09q-4.295-9.511-12.578-14.42-8.284-5.215-19.022-5.215-11.352 0-19.942 5.215-8.284 4.909-12.886 14.42-4.295 9.204-4.295 22.09t4.295 22.396q4.602 9.204 12.886 14.42 8.59 4.908 19.942 4.909"/><path fill="url(#e)" d="M794.614 214.761h-36.816l6.443-36.816h37.123z"/><path fill="url(#f)" d="M904.607 214.761H857.36L838.031 60.44h32.828l13.499 115.05h7.056l54.918-115.05h42.338l14.73 115.05h6.75l54.3-115.05h35.59l-73.63 154.321h-47.251L964.74 103.085h-6.75z"/><path fill="url(#g)" d="M1184.09 218.135q-23.01 0-41.73-9.51c-12.27-6.341-21.88-15.136-28.84-26.385-6.95-11.454-10.43-24.34-10.43-38.657q0-23.317 11.97-42.952c7.97-13.295 18.92-23.829 32.83-31.6 13.9-7.978 29.45-11.966 46.63-11.966 15.34 0 29.15 3.17 41.42 9.51 12.27 6.341 21.88 15.239 28.84 26.692 6.95 11.25 10.43 24.033 10.43 38.351q0 23.01-11.97 42.952c-7.97 13.294-18.92 23.93-32.82 31.907-13.91 7.772-29.36 11.658-46.33 11.658m1.53-29.146c11.25 0 21.27-2.454 30.07-7.363 8.79-5.113 15.65-11.863 20.55-20.249 4.91-8.59 7.37-17.794 7.37-27.612 0-14.113-4.81-25.567-14.42-34.361q-14.115-13.193-36.51-13.193-16.575 0-29.76 7.67c-8.8 4.909-15.65 11.659-20.56 20.249-4.91 8.386-7.36 17.488-7.36 27.305 0 14.113 4.7 25.567 14.11 34.362q14.115 13.192 36.51 13.192"/><path fill="url(#h)" d="m1296.85 214.761 27.31-154.321h27.92l.31 13.806h1.84q6.75-7.363 13.8-10.431 7.065-3.375 17.49-3.375h35.9l-4.91 29.453h-34.98q-14.73 0-24.24 7.67c-6.13 5.113-10.02 12.476-11.65 22.089l-16.88 95.109z"/><path fill="url(#i)" d="M1457.03 214.761h-31.91L1463.17 0h31.9l-23.01 130.697 84.37-70.257H1600l-94.8 77.314 67.8 77.007h-40.5l-62.58-73.326z"/><defs><linearGradient id="a" x1="286.783" x2="286.783" y1="52.541" y2="542.262" gradientUnits="userSpaceOnUse"><stop stop-color="#050614"/><stop offset="1" stop-color="#16183A"/></linearGradient><linearGradient id="b" x1="286.783" x2="286.783" y1="52.541" y2="542.262" gradientUnits="userSpaceOnUse"><stop stop-color="#050614"/><stop offset="1" stop-color="#16183A"/></linearGradient><linearGradient id="c" x1="286.783" x2="286.783" y1="52.541" y2="542.262" gradientUnits="userSpaceOnUse"><stop stop-color="#050614"/><stop offset="1" stop-color="#16183A"/></linearGradient><linearGradient id="d" x1="286.783" x2="286.783" y1="52.541" y2="542.262" gradientUnits="userSpaceOnUse"><stop stop-color="#050614"/><stop offset="1" stop-color="#16183A"/></linearGradient><linearGradient id="e" x1="1111.79" x2="1111.79" y1="33.435" y2="447.949" gradientUnits="userSpaceOnUse"><stop stop-color="#050614"/><stop offset="1" stop-color="#16183A"/></linearGradient><linearGradient id="f" x1="1111.79" x2="1111.79" y1="33.435" y2="447.949" gradientUnits="userSpaceOnUse"><stop stop-color="#050614"/><stop offset="1" stop-color="#16183A"/></linearGradient><linearGradient id="g" x1="1111.79" x2="1111.79" y1="33.435" y2="447.949" gradientUnits="userSpaceOnUse"><stop stop-color="#050614"/><stop offset="1" stop-color="#16183A"/></linearGradient><linearGradient id="h" x1="1111.79" x2="1111.79" y1="33.435" y2="447.949" gradientUnits="userSpaceOnUse"><stop stop-color="#050614"/><stop offset="1" stop-color="#16183A"/></linearGradient><linearGradient id="i" x1="1111.79" x2="1111.79" y1="33.435" y2="447.949" gradientUnits="userSpaceOnUse"><stop stop-color="#050614"/><stop offset="1" stop-color="#16183A"/></linearGradient></defs></svg>