<svg xmlns="http://www.w3.org/2000/svg" width="300" height="48" fill="none"><path fill="#fff" d="M4.732 48v-7.343h16.861v-7.506h-.272q-1.141 1.686-3.426 2.829-2.285 1.142-5.33 1.142-3.482 0-6.364-1.74-2.828-1.795-4.515-5.005Q0 27.114 0 22.871q0-4.187 1.74-7.451 1.795-3.264 4.733-5.058 2.99-1.795 6.418-1.795 3.1 0 5.384 1.305 2.34 1.251 3.536 3.209h.272V9.219h7.995V48zm10.497-18.221q1.905 0 3.318-.816a5.35 5.35 0 0 0 2.23-2.339q.816-1.576.816-3.753 0-2.175-.816-3.753-.76-1.577-2.23-2.393-1.413-.816-3.318-.816-1.958 0-3.426.816t-2.285 2.393-.815 3.753.815 3.753a5.7 5.7 0 0 0 2.285 2.34q1.469.815 3.426.815M50.289 38.047q-4.298 0-7.833-1.904-3.48-1.959-5.493-5.33-2.013-3.373-2.013-7.506 0-4.19 2.013-7.56 2.012-3.374 5.493-5.277 3.536-1.903 7.833-1.903 4.242 0 7.669 1.849 3.48 1.85 5.493 5.33 2.067 3.48 2.067 8.159v1.903H39.52V20.37H59.1l-2.067 1.415q-.163-1.904-1.088-3.264a5.5 5.5 0 0 0-2.339-2.121q-1.413-.762-3.263-.762-2.121 0-3.699.925-1.522.87-2.338 2.61-.816 1.742-.816 4.134 0 2.394.816 4.134t2.339 2.665q1.577.87 3.698.87t3.535-.706 2.34-2.122h8.702q-.816 2.937-2.937 5.222-2.067 2.23-5.113 3.48-3.045 1.198-6.581 1.198M72.781 37.394V2.312h8.485V30.05h8.16v7.343zm-5.71-20.94v-6.8h20.994v6.8zM103.666 38.047q-3.427 0-6.418-1.795-2.937-1.796-4.732-5.168-1.74-3.372-1.74-7.777 0-4.407 1.74-7.778 1.795-3.372 4.732-5.167 2.992-1.795 6.418-1.795 3.1 0 5.439 1.305 2.394 1.305 3.59 3.209h.272V9.219h7.995v28.175h-7.995v-3.862h-.272q-1.197 1.957-3.535 3.264-2.34 1.25-5.494 1.25m2.393-7.343q1.904 0 3.373-.87 1.468-.926 2.23-2.557.816-1.686.815-3.97 0-2.285-.815-3.917-.762-1.686-2.23-2.556-1.469-.925-3.373-.925-2.012 0-3.535.925-1.469.87-2.284 2.556-.762 1.633-.762 3.916 0 2.285.762 3.971.815 1.632 2.284 2.556 1.523.87 3.535.87"/><path fill="#F2F2F6" d="M140.873 38.074h-6.527l1.142-6.527h6.581zM160.373 38.074h-8.377l-3.426-27.359h5.82l2.393 20.397h1.251l9.736-20.397h7.506l2.61 20.397h1.197l9.627-20.397h6.31l-13.054 27.359h-8.376l-2.557-19.799h-1.196zM209.92 38.672q-4.079 0-7.397-1.686-3.264-1.686-5.113-4.678-1.85-3.046-1.849-6.853 0-4.134 2.121-7.615 2.121-3.535 5.82-5.602 3.7-2.121 8.267-2.121 4.08 0 7.343 1.686t5.113 4.732q1.85 2.99 1.849 6.799 0 4.08-2.121 7.614-2.121 3.536-5.82 5.657-3.698 2.067-8.213 2.067m.272-5.167q2.991 0 5.33-1.306 2.34-1.36 3.645-3.59a9.7 9.7 0 0 0 1.305-4.895q0-3.752-2.556-6.091-2.502-2.34-6.473-2.34-2.937 0-5.276 1.36-2.339 1.305-3.644 3.59a9.4 9.4 0 0 0-1.305 4.841q0 3.753 2.502 6.092 2.502 2.34 6.472 2.339M229.912 38.074l4.841-27.359h4.949l.055 2.448h.326q1.197-1.305 2.448-1.85 1.25-.598 3.1-.598h6.364l-.871 5.222h-6.2q-2.611 0-4.297 1.36-1.632 1.359-2.067 3.915l-2.992 16.862zM258.309 38.074h-5.657L259.396 0h5.657l-4.079 23.17 14.957-12.455h7.724l-16.807 13.707 12.02 13.652h-7.179l-11.096-13z"/><path fill="#F5B093" d="m290.72 25.496 2.38-10.486a6.5 6.5 0 0 1 .578-1.556q.375-.704 1.067-1.123.707-.433 1.862-.433.822 0 1.399.27.592.272.895.785.317.515.317 1.232t-.288 1.271a2.37 2.37 0 0 1-.823.907q-.548.352-1.37.528.75.148 1.269.69.534.527.534 1.542 0 .69-.231 1.285a3 3 0 0 1-.678 1.042 2.9 2.9 0 0 1-1.082.69q-.635.244-1.472.244t-1.342-.23a6 6 0 0 1-.865-.5l-.895 3.842zm4.256-4.086q.592 0 1.025-.19t.721-.5q.29-.312.433-.717.144-.406.144-.826 0-.54-.202-.96t-.649-.663q-.447-.244-1.198-.244h-.461l.202-.906h.534q.634 0 1.082-.163.462-.162.75-.446.288-.299.418-.69.145-.393.145-.84 0-.594-.361-.987-.347-.406-1.082-.406-.678 0-1.097.311a1.97 1.97 0 0 0-.649.799 5 5 0 0 0-.361 1.069l-1.313 5.79q.347.258.866.42a3.8 3.8 0 0 0 1.053.149"/></svg>