<svg xmlns="http://www.w3.org/2000/svg" width="159" height="32" fill="none"><g fill="#FAD9C4" clip-path="url(#a)"><path d="M5.21 21.103c0 1.84.404 3.252.932 4.107.693 1.119 1.726 1.593 2.78 1.593 1.358 0 2.6-.337 4.996-3.646 1.918-2.652 4.18-6.375 5.7-8.708l2.577-3.954c1.79-2.746 3.86-5.799 6.235-7.868C30.37.938 32.46 0 34.567 0c3.534 0 6.9 2.046 9.476 5.882 2.82 4.202 4.188 9.495 4.188 14.956 0 3.247-.64 5.633-1.73 7.518C45.445 30.179 43.392 32 39.94 32v-5.197c2.957 0 3.694-2.714 3.694-5.82 0-4.427-1.033-9.339-3.309-12.849-1.615-2.49-3.708-4.01-6.01-4.01-2.491 0-4.496 1.876-6.748 5.221-1.198 1.778-2.427 3.944-3.808 6.389l-1.52 2.689c-3.052 5.406-3.825 6.638-5.351 8.67C14.213 30.65 11.928 32 8.92 32c-3.567 0-5.823-1.543-7.22-3.869C.56 26.238 0 23.752 0 20.917z"/><path d="M4.107 6.25C6.496 2.571 9.942 0 13.896 0c2.289 0 4.565.677 6.942 2.615 2.6 2.12 5.37 5.61 8.827 11.361l1.24 2.064c2.991 4.98 4.694 7.541 5.69 8.75 1.282 1.55 2.179 2.013 3.344 2.013 2.957 0 3.695-2.714 3.695-5.82l4.596-.145c0 3.247-.64 5.633-1.731 7.518C45.446 30.179 43.393 32 39.939 32c-2.146 0-4.048-.466-6.152-2.448-1.616-1.521-3.507-4.223-4.96-6.653L24.5 15.682c-2.17-3.623-4.161-6.323-5.314-7.546-1.24-1.315-2.833-2.904-5.375-2.904-2.058 0-3.806 1.443-5.268 3.65z"/><path d="M13.812 5.232c-2.058 0-3.806 1.443-5.268 3.65-2.068 3.117-3.335 7.761-3.335 12.221 0 1.84.405 3.252.933 4.107L1.701 28.13C.56 26.238 0 23.752 0 20.917 0 15.765 1.416 10.396 4.108 6.25 6.496 2.572 9.942 0 13.896 0zM58.357 1.012h6.026L74.63 19.528 84.877 1.012h5.895v30.425h-4.915V8.12L76.87 24.266h-4.612L63.273 8.12v23.318h-4.916zm47.819 11.344c-3.525 0-5.649 2.65-6.157 5.933h11.965c-.246-3.381-2.199-5.933-5.808-5.933m-11.031 7.802c0-6.906 4.468-11.932 11.117-11.932 6.539 0 10.444 4.963 10.444 12.3v1.35h-16.687c.592 3.57 2.964 5.976 6.788 5.976 3.051 0 4.958-.93 6.766-2.63l2.611 3.194c-2.461 2.26-5.59 3.564-9.552 3.564-7.197 0-11.487-5.242-11.487-11.822m27.521-7.366h-4.525V8.77h4.525V2.12h4.744v6.65h6.874v4.02h-6.874v10.192c0 3.48 1.113 4.716 3.85 4.716 1.25 0 1.966-.107 3.024-.283v3.977a14.1 14.1 0 0 1-3.938.543q-7.68.002-7.68-8.388zm31.591 3.91c-.953-2.403-3.078-4.172-6.201-4.172-4.059 0-6.657 2.877-6.657 7.563 0 4.569 2.392 7.584 6.463 7.584 3.2 0 5.484-1.86 6.395-4.173zM159 31.437h-4.656v-3.173c-1.302 1.868-3.67 3.716-7.506 3.716-6.168 0-10.291-5.159-10.291-11.887 0-6.792 4.222-11.867 10.553-11.867 3.13 0 5.585 1.25 7.244 3.456V8.772H159z"/></g><defs><clipPath id="a"><path fill="#fff" d="M0 0h159v32H0z"/></clipPath></defs></svg>