<svg xmlns="http://www.w3.org/2000/svg" width="150" height="32" fill="none"><g fill="#FAD9C4" clip-path="url(#a)"><path d="M62.382 6.4v19.2h-3.333V10.533h-.044L53.05 25.6h-2.222l-6.087-15.067h-.044V25.6h-3.066V6.4h4.799l5.51 14.222h.088L57.849 6.4zm2.754 1.467c0-.534.178-.978.578-1.334.4-.355.844-.533 1.377-.533.578 0 1.067.178 1.422.533s.578.8.578 1.334c0 .533-.178.977-.578 1.333s-.844.533-1.422.533c-.577 0-1.022-.177-1.377-.533-.356-.4-.578-.844-.578-1.333m3.6 3.955V25.6h-3.244V11.822zm9.819 11.422c.488 0 1.021-.088 1.599-.355a7 7 0 0 0 1.6-.889v3.022a5.7 5.7 0 0 1-1.778.667c-.666.133-1.377.222-2.177.222-2.044 0-3.688-.622-4.932-1.911-1.288-1.289-1.91-2.933-1.91-4.889 0-2.222.666-4.044 1.955-5.467 1.288-1.422 3.11-2.133 5.51-2.133.621 0 1.243.089 1.82.222.623.134 1.112.356 1.467.534v3.11c-.489-.355-1.022-.666-1.51-.844-.534-.177-1.067-.31-1.6-.31-1.289 0-2.31.4-3.11 1.244s-1.156 1.955-1.156 3.377c0 1.378.4 2.49 1.156 3.245s1.777 1.155 3.066 1.155M90.95 11.6c.266 0 .489 0 .71.044q.334.068.534.134v3.289a2 2 0 0 0-.755-.356c-.356-.089-.711-.178-1.2-.178-.8 0-1.466.356-2 1.023-.533.666-.844 1.688-.844 3.11V25.6h-3.243V11.822h3.243V14h.045c.31-.756.755-1.333 1.333-1.778.622-.4 1.333-.622 2.177-.622m1.422 7.333c0-2.266.666-4.089 1.91-5.422q1.933-2 5.332-2c2.133 0 3.821.622 5.021 1.911s1.821 3.022 1.821 5.2c0 2.222-.666 4-1.91 5.334-1.289 1.333-3.022 2-5.243 2q-3.2 0-5.065-1.867c-1.244-1.289-1.866-3.022-1.866-5.156m3.376-.133c0 1.422.311 2.533.978 3.289.666.755 1.6 1.155 2.799 1.155 1.155 0 2.088-.355 2.71-1.155.622-.756.933-1.867.933-3.378 0-1.467-.311-2.578-.933-3.378-.622-.755-1.555-1.155-2.666-1.155-1.2 0-2.088.4-2.754 1.2-.756.844-1.067 1.955-1.067 3.422m15.551-3.333c0 .444.134.844.445 1.11s.933.579 1.955.979c1.288.533 2.221 1.11 2.71 1.733.533.667.8 1.422.8 2.355 0 1.29-.489 2.312-1.511 3.112-.977.8-2.355 1.155-4.043 1.155-.578 0-1.2-.089-1.911-.222s-1.288-.311-1.777-.533v-3.2c.578.4 1.244.755 1.911.977.666.223 1.288.356 1.866.356.711 0 1.288-.089 1.599-.311.356-.222.533-.534.533-1.022 0-.445-.177-.8-.533-1.156-.355-.311-1.066-.667-2.044-1.067-1.199-.489-2.044-1.066-2.532-1.689-.489-.622-.756-1.422-.756-2.4q0-1.866 1.467-3.066c.977-.8 2.266-1.2 3.821-1.2.488 0 1.022.044 1.599.178.578.133 1.111.266 1.511.4v3.155a9.5 9.5 0 0 0-1.511-.755 4.7 4.7 0 0 0-1.688-.312c-.622 0-1.111.134-1.422.356-.311.311-.489.622-.489 1.067m7.287 3.466c0-2.266.667-4.089 1.911-5.422q1.932-2 5.331-2c2.133 0 3.821.622 5.021 1.911s1.822 3.022 1.822 5.2c0 2.222-.667 4-1.911 5.334-1.288 1.333-3.021 2-5.243 2q-3.198 0-5.065-1.867c-1.199-1.289-1.866-3.022-1.866-5.156m3.377-.133c0 1.422.311 2.533.977 3.289.667.755 1.6 1.155 2.799 1.155 1.156 0 2.089-.355 2.711-1.155.622-.756.933-1.867.933-3.378 0-1.467-.311-2.578-.933-3.378-.622-.755-1.555-1.155-2.666-1.155-1.2 0-2.088.4-2.755 1.2-.711.844-1.066 1.955-1.066 3.422m21.505-4.311h-4.843V25.6h-3.288V14.489h-2.311v-2.667h2.311v-1.91c0-1.423.488-2.623 1.421-3.556.933-.934 2.133-1.378 3.599-1.378.4 0 .756.044 1.067.044s.577.09.799.178V8a5 5 0 0 0-.577-.222 3 3 0 0 0-.933-.134c-.667 0-1.2.223-1.555.623-.356.4-.533 1.066-.533 1.866v1.645h4.843V8.667l3.243-.978v4.089H150v2.666h-3.288v6.445c0 .844.178 1.422.444 1.778q.466.533 1.467.533.266 0 .666-.133c.267-.09.489-.178.667-.311v2.666c-.223.134-.534.222-1.022.311a7.7 7.7 0 0 1-1.422.134q-2.066 0-3.066-1.067c-.666-.711-1.022-1.822-1.022-3.289zM15.196 0H0v15.2h15.196zM31.99 0H16.795v15.2H31.99zM15.196 16.8H0V32h15.196zM31.99 16.8H16.795V32H31.99z"/></g><defs><clipPath id="a"><path fill="#fff" d="M0 0h150v32H0z"/></clipPath></defs></svg>