<svg xmlns="http://www.w3.org/2000/svg" width="158" height="32" fill="none"><g fill="#FAD9C4" clip-path="url(#a)"><path d="M105.034.013h27.521V5.08h-10.918v26.656h-5.459V5.08h-11.144zM59.772.013V5.08h-22.06v8.15h17.74v5.068h-17.74v8.37h22.06v5.068H32.254V5.08h-.002V.013zM73.514.026h-7.143L91.958 31.75h7.164l-12.795-15.85L99.102.05l-7.144.01-9.207 11.407zM80.845 22.686l-3.578-4.437L66.35 31.773h7.164z"/><path fill-rule="evenodd" d="M32.445 31.736 6.823 0H0v31.722h5.459V6.781l20.128 24.955z" clip-rule="evenodd"/><path d="M133.781 31.542q-.598 0-1.024-.415a1.33 1.33 0 0 1-.422-1.007 1.31 1.31 0 0 1 .422-.992 1.42 1.42 0 0 1 1.024-.415q.579 0 1.006.415.432.414.437.992a1.4 1.4 0 0 1-.204.716 1.5 1.5 0 0 1-.529.513 1.37 1.37 0 0 1-.71.193M143.098 18.178h2.419v9.296q-.007 1.28-.551 2.2a3.66 3.66 0 0 1-1.524 1.413q-.972.493-2.267.495c-.788 0-1.494-.142-2.123-.418a3.4 3.4 0 0 1-1.494-1.236q-.553-.818-.552-2.04h2.423q.007.535.24.924.234.386.644.592.416.207.954.207.585 0 .991-.243.406-.24.622-.72.212-.475.218-1.174zM155.47 21.814a1.75 1.75 0 0 0-.769-1.317q-.683-.473-1.764-.472-.761 0-1.306.225-.545.229-.836.615a1.5 1.5 0 0 0-.296.883q.001.415.196.716c.13.204.303.375.529.513q.334.212.74.352.41.143.821.24l1.261.31q.762.173 1.469.472c.469.196.895.447 1.268.749q.561.453.888 1.09.328.638.329 1.498 0 1.161-.603 2.043-.604.879-1.746 1.375-1.136.492-2.755.494c-1.043 0-1.953-.16-2.718-.48q-1.154-.476-1.802-1.392-.648-.917-.699-2.232h2.397c.033.458.181.84.433 1.148.255.306.588.531.995.684q.615.224 1.376.225.793-.001 1.398-.236.6-.233.939-.658.344-.42.348-.989-.007-.518-.307-.858-.306-.338-.844-.567a9 9 0 0 0-1.265-.41l-1.531-.386q-1.66-.42-2.622-1.276-.963-.854-.962-2.276 0-1.167.648-2.047.644-.878 1.76-1.363 1.121-.489 2.53-.487 1.43-.002 2.511.487 1.082.487 1.698 1.349.618.86.636 1.978z"/></g><defs><clipPath id="a"><path fill="#fff" d="M0 0h158v32H0z"/></clipPath></defs></svg>