<svg xmlns="http://www.w3.org/2000/svg" width="64" height="64" fill="none"><path fill="#FAD9C4" d="M58.5 13.52a12 12 0 0 0-17 0l2.84 2.84A8.018 8.018 0 1 1 55.68 27.7l-16 16a8.012 8.012 0 0 1-11.34-11.32l2.82-2.84-2.82-2.84-2.84 2.84a12 12 0 0 0 0 17A12 12 0 0 0 34 50a12 12 0 0 0 8.54-3.52l16-16a12 12 0 0 0-.04-16.96"/><path fill="#FCEFE7" d="M8.38 49.64a8 8 0 0 1 0-11.34l16-16a8 8 0 0 1 11.34 0A7.88 7.88 0 0 1 38 28a8 8 0 0 1-2.34 5.7L31.42 38l2.84 2.84 4.24-4.24a12.035 12.035 0 1 0-17.02-17.02l-16 16a12 12 0 0 0 0 17.02A12 12 0 0 0 14 56a12.14 12.14 0 0 0 8.56-3.52l-2.84-2.84a8 8 0 0 1-11.34 0"/></svg>