<svg width="64" height="64" viewBox="0 0 64 64" fill="none" xmlns="http://www.w3.org/2000/svg">
<path d="M32 60C26.4621 60 21.0486 58.3578 16.444 55.2812C11.8395 52.2045 8.25064 47.8315 6.13139 42.7151C4.01213 37.5988 3.45764 31.969 4.53802 26.5375C5.61841 21.106 8.28515 16.1169 12.201 12.201C16.1169 8.28515 21.106 5.61841 26.5375 4.53802C31.969 3.45764 37.5988 4.01213 42.7151 6.13139C47.8315 8.25064 52.2045 11.8395 55.2812 16.444C58.3578 21.0486 60 26.4621 60 32C60 39.4261 57.05 46.548 51.799 51.799C46.548 57.05 39.4261 60 32 60ZM32 8.00001C27.2533 8.00001 22.6131 9.40759 18.6663 12.0447C14.7195 14.6819 11.6434 18.4302 9.8269 22.8156C8.0104 27.201 7.53512 32.0266 8.46117 36.6822C9.38721 41.3377 11.673 45.6141 15.0294 48.9706C18.3859 52.327 22.6623 54.6128 27.3178 55.5389C31.9734 56.4649 36.799 55.9896 41.1844 54.1731C45.5698 52.3566 49.3181 49.2805 51.9553 45.3337C54.5924 41.3869 56 36.7468 56 32C56 25.6348 53.4714 19.5303 48.9706 15.0294C44.4697 10.5286 38.3652 8.00001 32 8.00001Z" fill="#424674"/>
<path d="M41.18 44L30 32.82V14H34V31.16L44 41.18L41.18 44Z" fill="#F2F2F6"/>
</svg>
