<svg width="64" height="64" viewBox="0 0 64 64" fill="none" xmlns="http://www.w3.org/2000/svg">
<path d="M54.6801 24.1199L10.6801 8.11989C10.3229 7.99103 9.93642 7.96653 9.5658 8.04925C9.19518 8.13197 8.85577 8.31849 8.58725 8.58701C8.31874 8.85552 8.13221 9.19493 8.04949 9.56555C7.96677 9.93617 7.99128 10.3227 8.12013 10.6799L24.1201 54.6799C24.2599 55.0664 24.5153 55.4005 24.8517 55.6367C25.1881 55.8729 25.5891 55.9997 26.0001 55.9999C26.4007 56.0003 26.7921 55.8804 27.1238 55.6557C27.4554 55.4311 27.7119 55.112 27.8601 54.7399L35.5401 35.5399L54.7401 27.8599C55.1196 27.716 55.4463 27.46 55.6768 27.126C55.9074 26.792 56.0308 26.3957 56.0308 25.9899C56.0308 25.584 55.9074 25.1878 55.6768 24.8538C55.4463 24.5198 55.1196 24.2638 54.7401 24.1199H54.6801ZM33.2601 32.1199L32.4601 32.4399L32.1401 33.2399L26.0001 48.3999L13.3401 13.3399L48.4001 25.9999L33.2601 32.1199Z" fill="#FCEFE7"/>
</svg>
