<svg xmlns="http://www.w3.org/2000/svg" width="64" height="64" fill="none"><path fill="#FCEFE7" d="M25.8 14c-.8-3.4-4-6-7.8-6s-6.8 2.6-7.8 6H4v4h6.2c.8 3.4 4 6 7.8 6s6.8-2.6 7.8-6H60v-4zM18 20c-2.2 0-4-1.8-4-4s1.8-4 4-4 4 1.8 4 4-1.8 4-4 4m10 20c-3.8 0-6.8 2.6-7.8 6H4v4h16.2c.8 3.4 4 6 7.8 6s6.8-2.6 7.8-6H60v-4H35.8c-.8-3.4-4-6-7.8-6m0 12c-2.2 0-4-1.8-4-4s1.8-4 4-4 4 1.8 4 4-1.8 4-4 4"/><path fill="#FAD9C4" d="M38.2 30c1-3.4 4-6 7.8-6s7 2.6 7.8 6H60v4h-6.2c-1 3.4-4 6-7.8 6s-7-2.6-7.8-6H4v-4z"/></svg>