<svg xmlns="http://www.w3.org/2000/svg" width="150" height="24" fill="none"><path fill="#F2F2F6" d="M2.366 24v-3.671h8.43v-3.753h-.135q-.571.843-1.714 1.414-1.142.57-2.665.57-1.74 0-3.182-.87-1.413-.897-2.257-2.501Q0 13.556 0 11.436 0 9.342.87 7.71q.898-1.632 2.366-2.53a6.13 6.13 0 0 1 3.21-.897q1.55 0 2.692.653 1.17.626 1.767 1.604h.136V4.61h3.998V24zm5.249-9.11q.951 0 1.659-.409.734-.407 1.115-1.169.408-.789.408-1.876 0-1.088-.408-1.877a2.65 2.65 0 0 0-1.115-1.196q-.708-.408-1.66-.408-.978 0-1.713.408T4.76 9.559q-.408.788-.408 1.877 0 1.087.408 1.876a2.84 2.84 0 0 0 1.142 1.17q.735.408 1.714.408M25.144 19.023q-2.148 0-3.916-.952a7.3 7.3 0 0 1-2.747-2.665q-1.006-1.686-1.006-3.753 0-2.094 1.006-3.78a7.1 7.1 0 0 1 2.747-2.638q1.768-.952 3.916-.952 2.122 0 3.835.925a6.8 6.8 0 0 1 2.747 2.665q1.033 1.74 1.033 4.08v.9510000000000001h-13v-2.72h9.791l-1.033.708q-.082-.953-.544-1.632a2.75 2.75 0 0 0-1.17-1.06q-.707-.381-1.631-.381-1.062 0-1.85.462-.76.435-1.17 1.305-.407.87-.407 2.067t.408 2.067 1.17 1.333q.787.435 1.849.435 1.06 0 1.767-.354t1.17-1.06h4.35a6.25 6.25 0 0 1-1.468 2.61q-1.033 1.116-2.556 1.74-1.523.6-3.29.6M36.39 18.697V1.156h4.243v13.87h4.08v3.67zm-2.855-10.47v-3.4h10.498v3.4zM51.833 19.023q-1.713 0-3.209-.897-1.469-.898-2.366-2.584-.87-1.686-.87-3.889t.87-3.889q.897-1.686 2.366-2.583a6.13 6.13 0 0 1 3.21-.898q1.549 0 2.719.653 1.196.653 1.794 1.604h.136V4.61h3.998v14.087h-3.998v-1.931h-.136q-.598.98-1.767 1.632-1.17.625-2.747.625m1.197-3.671q.951 0 1.686-.435.734-.463 1.115-1.278.408-.844.408-1.986t-.408-1.958q-.381-.843-1.115-1.278-.735-.462-1.686-.462-1.006 0-1.768.462-.734.435-1.142 1.278-.381.816-.381 1.958t.38 1.986q.409.815 1.143 1.278.762.435 1.768.435M70.436 19.037h-3.263l.571-3.264h3.29zM80.186 19.037h-4.188l-1.713-13.68h2.91l1.196 10.199h.626l4.868-10.198h3.753l1.305 10.198h.599l4.813-10.198h3.155l-6.527 13.679h-4.188l-1.278-9.9h-.599zM104.96 19.336q-2.04 0-3.698-.843-1.632-.843-2.557-2.339-.924-1.522-.924-3.427a7.2 7.2 0 0 1 1.06-3.807 7.7 7.7 0 0 1 2.91-2.801q1.85-1.06 4.134-1.06 2.04 0 3.671.842a6.3 6.3 0 0 1 2.557 2.366q.924 1.496.924 3.4 0 2.04-1.06 3.807-1.062 1.769-2.91 2.828-1.85 1.034-4.107 1.034m.136-2.584q1.496 0 2.665-.652a4.94 4.94 0 0 0 1.822-1.795 4.86 4.86 0 0 0 .653-2.448q0-1.875-1.278-3.046-1.251-1.17-3.236-1.17-1.469.001-2.638.68a4.7 4.7 0 0 0-1.822 1.796 4.7 4.7 0 0 0-.653 2.42q0 1.876 1.251 3.046t3.236 1.17M114.956 19.037l2.42-13.68h2.475l.027 1.224h.163q.599-.652 1.224-.924.626-.3 1.55-.3h3.182l-.435 2.611h-3.1q-1.305 0-2.149.68-.815.68-1.033 1.958l-1.496 8.43zM129.154 19.037h-2.828L129.698 0h2.829l-2.04 11.585 7.479-6.227h3.861l-8.403 6.853 6.01 6.826h-3.59l-5.548-6.5zM145.36 12.748l1.19-5.243q.102-.426.289-.778.188-.351.534-.561.353-.217.93-.217.411 0 .7.136.296.134.447.392.159.256.159.616 0 .358-.144.635-.138.27-.411.454a2.1 2.1 0 0 1-.686.264q.375.074.635.345.267.263.267.77 0 .346-.115.643a1.49 1.49 0 0 1-.881.866 2 2 0 0 1-.735.122q-.419 0-.671-.115a3 3 0 0 1-.433-.25l-.447 1.921zm2.128-2.043q.296 0 .512-.095.217-.094.361-.25t.216-.358a1.2 1.2 0 0 0-.028-.894.75.75 0 0 0-.325-.331q-.224-.122-.599-.122h-.231l.101-.453h.267q.318 0 .541-.081a1 1 0 0 0 .375-.223.9.9 0 0 0 .21-.345q.072-.197.072-.42a.7.7 0 0 0-.181-.494q-.172-.203-.541-.203-.339 0-.548.156a1 1 0 0 0-.325.399 2.6 2.6 0 0 0-.18.534l-.656 2.896q.172.128.432.21.26.075.527.074"/></svg>