<svg xmlns="http://www.w3.org/2000/svg" width="106" height="32" fill="none"><g clip-path="url(#a)"><path fill="#FAD9C4" d="M15.928.053C7.158.053.048 7.194.048 16.003c0 8.81 7.11 15.951 15.88 15.951s15.88-7.14 15.88-15.95S24.698.054 15.928.054zm7.282 23.005a.987.987 0 0 1-1.362.33c-3.728-2.288-8.422-2.806-13.95-1.537a.99.99 0 0 1-1.184-.749.993.993 0 0 1 .744-1.19c6.05-1.388 11.238-.79 15.424 1.779.466.287.614.899.328 1.367m1.944-4.343c-.359.585-1.121.77-1.703.41-4.269-2.635-10.775-3.399-15.824-1.86a1.24 1.24 0 0 1-1.545-.828 1.246 1.246 0 0 1 .826-1.55c5.767-1.758 12.936-.907 17.838 2.119.582.36.766 1.125.408 1.71m.166-4.522c-5.117-3.054-13.561-3.335-18.448-1.845a1.484 1.484 0 0 1-1.852-.994 1.494 1.494 0 0 1 .99-1.861c5.61-1.71 14.934-1.38 20.826 2.133.708.421.939 1.337.52 2.045a1.48 1.48 0 0 1-2.035.522m17.931.585c-2.742-.657-3.229-1.118-3.229-2.087 0-.915.857-1.53 2.133-1.53 1.237 0 2.462.467 3.747 1.43.038.029.087.04.135.033a.18.18 0 0 0 .12-.074l1.338-1.895a.18.18 0 0 0-.034-.245c-1.53-1.233-3.252-1.833-5.266-1.833-2.96 0-5.029 1.785-5.029 4.338 0 2.738 1.785 3.708 4.868 4.456 2.622.607 3.066 1.116 3.066 2.025 0 1.007-.895 1.634-2.336 1.634-1.6 0-2.907-.543-4.367-1.812a.177.177 0 0 0-.254.02l-1.502 1.794a.18.18 0 0 0 .017.251c1.7 1.524 3.789 2.328 6.045 2.328 3.19 0 5.251-1.75 5.251-4.461.006-2.287-1.358-3.554-4.697-4.37zm11.92-2.716c-1.382 0-2.516.547-3.453 1.668v-1.262c0-.1-.08-.181-.178-.181h-2.456a.18.18 0 0 0-.178.18v14.02c0 .1.08.181.178.181h2.456a.18.18 0 0 0 .178-.181v-4.425c.937 1.054 2.07 1.57 3.453 1.57 2.57 0 5.171-1.987 5.171-5.785.004-3.799-2.598-5.786-5.169-5.786zm2.315 5.785c0 1.933-1.185 3.284-2.884 3.284-1.678 0-2.945-1.412-2.945-3.284s1.267-3.283 2.945-3.283c1.67 0 2.884 1.38 2.884 3.283m9.521-5.786c-3.309 0-5.9 2.56-5.9 5.828 0 3.232 2.574 5.764 5.86 5.764 3.32 0 5.92-2.55 5.92-5.806 0-3.244-2.582-5.785-5.88-5.785m0 9.089c-1.76 0-3.087-1.421-3.087-3.304 0-1.891 1.282-3.263 3.048-3.263 1.77 0 3.106 1.42 3.106 3.305 0 1.89-1.29 3.262-3.067 3.262m12.946-8.863h-2.702V9.513c0-.1-.08-.181-.178-.181h-2.456a.18.18 0 0 0-.18.18v2.775h-1.18a.18.18 0 0 0-.178.18v2.12c0 .1.08.181.178.181h1.18v5.485c0 2.215 1.098 3.339 3.265 3.339.88 0 1.61-.183 2.299-.575a.18.18 0 0 0 .09-.157v-2.019a.18.18 0 0 0-.26-.16c-.471.238-.928.349-1.44.349-.787 0-1.14-.36-1.14-1.164V14.77h2.702a.18.18 0 0 0 .178-.18v-2.12a.174.174 0 0 0-.176-.18zm9.413.01v-.34c0-1.002.383-1.45 1.24-1.45.512 0 .924.103 1.384.257a.18.18 0 0 0 .235-.172V8.514c0-.08-.049-.15-.126-.173a6.7 6.7 0 0 0-2.04-.295c-2.267 0-3.467 1.283-3.467 3.708v.522h-1.18a.18.18 0 0 0-.18.18v2.131c0 .1.082.181.18.181h1.18v8.458c0 .101.081.181.18.181h2.454c.1 0 .18-.08.18-.18v-8.458h2.292l3.512 8.457c-.398.888-.79 1.065-1.325 1.065-.433 0-.89-.13-1.354-.387a.2.2 0 0 0-.142-.013.18.18 0 0 0-.106.097l-.833 1.834a.18.18 0 0 0 .078.235c.868.472 1.651.674 2.62.674 1.813 0 2.816-.85 3.698-3.132l4.259-11.054a.18.18 0 0 0-.019-.168.17.17 0 0 0-.146-.079h-2.556a.18.18 0 0 0-.17.122l-2.62 7.51-2.867-7.515a.18.18 0 0 0-.166-.117h-4.195m-5.457-.01h-2.456a.18.18 0 0 0-.18.18v10.76c0 .1.081.18.18.18h2.456a.18.18 0 0 0 .18-.18V12.468c0-.1-.08-.181-.18-.181zm-1.214-4.899c-.973 0-1.762.791-1.762 1.768s.79 1.77 1.762 1.77c.973 0 1.76-.793 1.76-1.77s-.79-1.768-1.76-1.768m21.507 8.358a1.725 1.725 0 0 1-1.727-1.735 1.74 1.74 0 0 1 1.737-1.745c.971 0 1.727.784 1.727 1.735s-.766 1.745-1.737 1.745m.01-3.307c-.886 0-1.555.706-1.555 1.572 0 .865.665 1.562 1.545 1.562.886 0 1.555-.706 1.555-1.572 0-.865-.665-1.562-1.545-1.562m.383 1.74.489.687h-.413l-.44-.63h-.378v.63h-.345v-1.821h.808c.423 0 .7.216.7.58.002.3-.171.482-.419.554zm-.292-.822h-.45v.577h.45c.223 0 .358-.11.358-.289 0-.187-.135-.288-.358-.288"/></g><defs><clipPath id="a"><path fill="#fff" d="M0 0h106v32H0z"/></clipPath></defs></svg>